<svg id="PC_Lv1_ic_lifechat" xmlns="http://www.w3.org/2000/svg" xmlns:xlink="http://www.w3.org/1999/xlink" width="130" height="130" viewBox="0 0 130 130">
  <defs>
    <clipPath id="clip-path">
      <rect id="長方形_5784" data-name="長方形 5784" width="130" height="130" fill="none"/>
    </clipPath>
  </defs>
  <g id="Lv1_ic_chat" clip-path="url(#clip-path)">
    <path id="パス_1830" data-name="パス 1830" d="M122.5,68a1.98,1.98,0,0,0-2,1.961h0V89.585a5.943,5.943,0,0,1-6,5.889h-2V91.548a7.883,7.883,0,0,0-6.228-7.64,9.607,9.607,0,0,0,2.228-6.1V69.963a9.919,9.919,0,0,0-10-9.813h-8a1.982,1.982,0,0,0-2,1.962h0v15.7a9.607,9.607,0,0,0,2.228,6.1,7.882,7.882,0,0,0-6.228,7.64v3.925h-6V93.149a5.9,5.9,0,0,0,4-5.527V85.663a6,6,0,0,0-12,0v1.963a5.893,5.893,0,0,0,4,5.527v2.324h-8V54.263h48a1.963,1.963,0,1,0,0-3.925H108.5V46.413a7.676,7.676,0,0,0-1.656-4.729A13.68,13.68,0,0,0,112.5,30.71,17.809,17.809,0,0,0,94.548,13.046,18.152,18.152,0,0,0,82.364,17.7a6.042,6.042,0,0,0-7.128-4.633,5.938,5.938,0,0,0-4.718,7,6.04,6.04,0,0,0,7.072,4.644,17.292,17.292,0,0,0-1.09,6,13.685,13.685,0,0,0,5.656,10.973,7.679,7.679,0,0,0-1.656,4.73v3.924h-14V15.007a2,2,0,0,0-4,0V50.336h-36V46.413a3.963,3.963,0,0,1,4-3.925h12a3.992,3.992,0,0,1,3.748,2.619,2.011,2.011,0,0,0,2.566,1.17,1.955,1.955,0,0,0,1.2-2.485,7.948,7.948,0,0,0-5.754-5.01A9.6,9.6,0,0,0,46.5,32.673V24.826a10,10,0,0,0-20,0v7.852a9.6,9.6,0,0,0,2.228,6.1A7.886,7.886,0,0,0,22.5,46.413v3.924H8.5V38.56a2,2,0,0,0-4,0V89.585a9.92,9.92,0,0,0,10,9.814H45.614l-4.5,11.776H32.5a9.92,9.92,0,0,0-10,9.814,1.982,1.982,0,0,0,2,1.962h52a1.963,1.963,0,1,0,0-3.924H26.842A6.006,6.006,0,0,1,32.5,115.1h64a6.006,6.006,0,0,1,5.658,3.925H84.5a1.963,1.963,0,1,0,0,3.924h20a1.982,1.982,0,0,0,2-1.962,9.92,9.92,0,0,0-10-9.814H87.885L83.384,99.4H114.5a9.921,9.921,0,0,0,10-9.814V69.963a1.98,1.98,0,0,0-2-1.964Zm-48,17.664a2,2,0,0,1,4,0v1.963a2,2,0,0,1-4,0Zm0-66.731a2,2,0,1,1,2,1.965,1.982,1.982,0,0,1-2-1.965m6,11.776a14,14,0,0,1,28,0,9.806,9.806,0,0,1-4.973,8.44,7.959,7.959,0,0,0-1.256-.4A9.594,9.594,0,0,0,104.5,32.67V28.747a1.981,1.981,0,0,0-2-1.962,7.789,7.789,0,0,1-5.414-2.2l-1.172-1.152a2.028,2.028,0,0,0-2.824,0l-1.172,1.152a7.789,7.789,0,0,1-5.414,2.2,1.981,1.981,0,0,0-2,1.962v3.925a9.6,9.6,0,0,0,2.227,6.1,8.059,8.059,0,0,0-1.256.4A9.807,9.807,0,0,1,80.5,30.712m8,1.963V30.537a11.857,11.857,0,0,0,6-2.944,11.857,11.857,0,0,0,6,2.944v2.136a6,6,0,0,1-12,0m-4,13.74a3.963,3.963,0,0,1,4-3.925h12a3.963,3.963,0,0,1,4,3.925v3.924h-20Zm-54-13.74V26.784h12v5.889a6,6,0,0,1-12,0m6-13.739a6.007,6.007,0,0,1,5.658,3.925H30.842A6.005,6.005,0,0,1,36.5,18.934m56,58.881V71.925h12v5.889a6,6,0,0,1-12,0m0-13.738h6A6,6,0,0,1,104.157,68H92.5ZM8.5,89.585V54.263h54V95.478h-14V91.553a7.883,7.883,0,0,0-6.228-7.64,9.606,9.606,0,0,0,2.227-6.1V73.888a1.981,1.981,0,0,0-2-1.963h0a18.01,18.01,0,0,1-9.883-2.943l-1-.658a2.031,2.031,0,0,0-2.521.246l-4,3.925a1.943,1.943,0,0,0-.592,1.393v3.925a9.606,9.606,0,0,0,2.227,6.1,7.884,7.884,0,0,0-1.12.341A9.828,9.828,0,0,1,20.5,75.738a13.876,13.876,0,0,1,14.118-13.62c.186,0,.372.006.558.016A14.3,14.3,0,0,1,48.5,76.415a14.569,14.569,0,0,0,4.417,10.467l2.169,2.128a2.025,2.025,0,0,0,2.828,0,1.94,1.94,0,0,0,.049-2.726l-.05-.049-2.168-2.13a10.7,10.7,0,0,1-3.245-7.69A18.047,18.047,0,0,0,23.914,61.581a6.035,6.035,0,0,0-7.954-2.85,5.834,5.834,0,0,0-2.9,7.81,5.972,5.972,0,0,0,4.514,3.33A17.381,17.381,0,0,0,16.5,75.7a13.643,13.643,0,0,0,5.722,11.042A7.689,7.689,0,0,0,20.5,91.552v3.925h-6a5.943,5.943,0,0,1-6-5.886v0m20-11.774V74.7l2.258-2.215A22.019,22.019,0,0,0,40.5,75.761v2.052a6,6,0,0,1-12,0m0,9.812h12a3.964,3.964,0,0,1,4,3.925v3.925h-20V91.551a3.964,3.964,0,0,1,4-3.925M18.5,66.04a1.962,1.962,0,1,1,2-1.962,1.98,1.98,0,0,1-2,1.962m65.113,45.141H45.386l4.5-11.776H79.114Zm4.886-15.7V91.554a3.964,3.964,0,0,1,4-3.925h12a3.965,3.965,0,0,1,4,3.925v3.925Z" transform="translate(0.5 1.049)" fill="#4fa53a"/>
    <path id="パス_1831" data-name="パス 1831" d="M114.5,4.992H14.5a10.014,10.014,0,0,0-10,10V31a2,2,0,0,0,4,0v-16a6,6,0,0,1,6-6h100a6,6,0,0,1,6,6V63.008a2,2,0,0,0,4,0V14.995a10.014,10.014,0,0,0-10-10" transform="translate(0.5 1.008)" fill="#4fa53a"/>
    <path id="パス_1832" data-name="パス 1832" d="M71,65a6,6,0,1,0,6-6,6,6,0,0,0-6,6m8,0a2,2,0,1,1-2-2,2,2,0,0,1,2,2" transform="translate(0 0)" fill="#4fa53a"/>
    <path id="パス_1833" data-name="パス 1833" d="M25,19a6,6,0,1,0-6,6,6,6,0,0,0,6-6m-8,0a2,2,0,1,1,2,2,2,2,0,0,1-2-2" transform="translate(0 0)" fill="#4fa53a"/>
  </g>
</svg>
