<svg id="PC_Lv1_eye_2" xmlns="http://www.w3.org/2000/svg" xmlns:xlink="http://www.w3.org/1999/xlink" width="20" height="20" viewBox="0 0 20 20">
  <defs>
    <clipPath id="clip-path">
      <rect id="長方形_5881" data-name="長方形 5881" width="20" height="20" fill="#aeaeae"/>
    </clipPath>
  </defs>
  <g id="グループ_1001" data-name="グループ 1001" clip-path="url(#clip-path)">
    <path id="パス_1957" data-name="パス 1957" d="M4.519,8.1a7.455,7.455,0,0,0-2.167,3.1A7.873,7.873,0,0,0,6.2,15.3a8.592,8.592,0,0,0,6.153.413c.088-.209-1.413-1.785-1.765-1.862a3,3,0,0,1-3.62-1.848,3.133,3.133,0,0,1-.047-1.66A13,13,0,0,0,4.519,8.1" transform="translate(-0.352 -1.102)" fill="#aeaeae"/>
    <path id="パス_1958" data-name="パス 1958" d="M16.534,13.262a7.314,7.314,0,0,0,2.221-2.967,7.727,7.727,0,0,0-10-4.572c-.085.205,1.353,1.677,1.68,1.808A3.148,3.148,0,0,1,12.3,7.515a2.941,2.941,0,0,1,1.95,2.015,2.745,2.745,0,0,1-.051,1.535" transform="translate(-0.755 -0.262)" fill="#aeaeae"/>
    <path id="パス_1959" data-name="パス 1959" d="M3.485,3.609a1.147,1.147,0,0,1,1.58.054c.462.366,13.645,11.9,13.834,12.075a.924.924,0,0,1,.093,1.367l0,0a1.229,1.229,0,0,1-1.477-.084L3.5,4.777a.825.825,0,0,1-.019-1.168" transform="translate(-1.25 -0.316)" fill="#aeaeae"/>
    <path id="パス_1960" data-name="パス 1960" d="M14.314,12.374a2,2,0,1,0-2,2,2,2,0,0,0,2-2" transform="translate(-2.315 -2.376)" fill="#aeaeae"/>
  </g>
</svg>
