<svg id="PC_Lv1_ic_logo" xmlns="http://www.w3.org/2000/svg" xmlns:xlink="http://www.w3.org/1999/xlink" width="196" height="40" viewBox="0 0 196 40">
  <defs>
    <clipPath id="clip-path">
      <rect id="長方形_5779" data-name="長方形 5779" width="40" height="40" fill="none"/>
    </clipPath>
    <clipPath id="clip-path-2">
      <rect id="長方形_5780" data-name="長方形 5780" width="150" height="36" transform="translate(1)" fill="none"/>
    </clipPath>
  </defs>
  <g id="Lv1_ic_logo_1" clip-path="url(#clip-path)">
    <path id="パス_1815" data-name="パス 1815" d="M36.981,17.042a1.139,1.139,0,0,0-.746-.886L25,12.229,23.518,8.239a1.132,1.132,0,0,0-.736-.7L4.45,2.042H4.436a1.365,1.365,0,0,0-.136-.03H4.294A1.211,1.211,0,0,0,4.148,2H4.124A.728.728,0,0,0,4,2.007H3.976a1.135,1.135,0,0,0-.139.028l-.019.006-.085.027-.027.013L3.664,2.1a.776.776,0,0,0-.1.051l-.024.015a1.242,1.242,0,0,0-.119.084L3.41,2.26c-.034.028-.066.057-.1.088L3.3,2.36l0,.01a1.389,1.389,0,0,0-.1.116l-.01.015c-.022.035-.044.071-.063.108l-.017.034c-.018.04-.036.082-.051.123v.006a1.405,1.405,0,0,0-.036.136l-.006.033C3.009,2.981,3,3.023,3,3.063v.188a1.121,1.121,0,0,0,.017.119l.008.035q.017.071.041.14l8.062,21.683,3.727,10.03A1.133,1.133,0,0,0,15.916,36a1.117,1.117,0,0,0,.4-.074,1.147,1.147,0,0,0,.661-1.474l-3.33-8.964,6.8-2.623,1.839,4.954a1.032,1.032,0,0,0,.068.145.259.259,0,0,0,.024.042c.019.032.04.062.061.1l.032.042a1.116,1.116,0,0,0,.08.087l.025.026a.966.966,0,0,0,.119.1l.027.017c.034.021.069.044.1.062l.046.021c.032.015.066.028.1.041l.05.017.026.01c.023.007.05.011.074.016s.04.01.058.013a1.117,1.117,0,0,0,.138.012h.028a1.149,1.149,0,0,0,.183-.016.286.286,0,0,0,.051-.014A1.254,1.254,0,0,0,23.7,28.5l.061-.025c.036-.015.071-.03.1-.048a.609.609,0,0,0,.061-.036l.1-.063.03-.02L36.583,18.14a1.152,1.152,0,0,0,.4-1.087M25.91,23.859l1.572-4.129v-.012a1.334,1.334,0,0,0,.052-.194V19.5a1.084,1.084,0,0,0,.015-.194v-.025a1.366,1.366,0,0,0-.022-.188l-.006-.028q-.016-.066-.038-.128v-.017l-1.457-3.906,7.529,2.627Zm-6.268-3.134-6.8,2.623L6.254,5.611l-.267-.722L21.594,9.577l.628,1.683.517,1.392.516,1.391,1.191,3.208.525,1.41-.063.024-1.537.595-1.613.622L20.7,20.31Z" transform="translate(0 1)" fill="#4fa53a"/>
  </g>
  <g id="Lv1_ic_logo_2" transform="translate(45 2)" clip-path="url(#clip-path-2)">
    <path id="パス_1816" data-name="パス 1816" d="M121.812,8a17.349,17.349,0,0,0-7.254,1.892L114,8.4h-4V28h5.384V15.039a10.036,10.036,0,0,1,3.926-1.4,1.17,1.17,0,0,1,1.3,1.033l0,.019a1.3,1.3,0,0,1,0,.353V28H126V14.28C126,10.5,124.923,8,121.815,8" transform="translate(18.999 1.997)" fill="#4fa53a"/>
    <path id="パス_1817" data-name="パス 1817" d="M101,2c-8.017,0-11,4.2-11,8.326V21.674C90,25.795,92.986,30,101,30s11-4.2,11-8.327V10.327C112,6.2,109.014,2,101,2m4.6,19.135c0,2.123-1.407,3.429-4.605,3.429s-4.605-1.305-4.605-3.429V10.851c0-2.121,1.407-3.428,4.605-3.428S105.6,8.73,105.6,10.851Z" transform="translate(14.999 0.999)" fill="#4fa53a"/>
    <path id="パス_1818" data-name="パス 1818" d="M75.238,8C68.851,8,67,11.553,67,15.694v4.5C67,24.927,69.364,28,75.592,28a22.756,22.756,0,0,0,7.21-1.222l-.828-4.259a22.369,22.369,0,0,1-5.831.824c-2.6,0-3.467-.588-3.467-2.8v-.552H83V15.968C83,11.787,81.618,8,75.236,8m2.585,7.729H72.675V14.9a2.219,2.219,0,0,1,2-2.449,2.423,2.423,0,0,1,.6,0h.191c1.969,0,2.364,1.1,2.364,2.446Z" transform="translate(14 1.999)" fill="#4fa53a"/>
    <path id="パス_1819" data-name="パス 1819" d="M60.232,8C53.847,8,52,11.553,52,15.694v4.5C52,24.927,54.36,28,60.582,28a22.8,22.8,0,0,0,7.211-1.222l-.823-4.259a22.369,22.369,0,0,1-5.831.824c-2.6,0-3.467-.588-3.467-2.8v-.552H68V15.968C68,11.787,66.621,8,60.236,8m2.406,7.729H57.118V14.9a2.219,2.219,0,0,1,2-2.449,2.423,2.423,0,0,1,.6,0c.1,0,.183.015.276.02s.177-.02.281-.02c1.969,0,2.364,1.1,2.364,2.446Z" transform="translate(11.003 1.999)" fill="#4fa53a"/>
    <path id="パス_1820" data-name="パス 1820" d="M46.277,8.483H41V28h6.33V16.1A32.111,32.111,0,0,1,53,13.533V8c-2.26,0-4.966,1.566-6.287,2.368Z" transform="translate(9.003 1.998)" fill="#4fa53a"/>
    <path id="パス_1821" data-name="パス 1821" d="M33.634,8a28.547,28.547,0,0,0-7.108.941L27.3,13.2a28.389,28.389,0,0,1,5.362-.552c3.127,0,3.494.671,3.494,2.644v1.458H31.887c-4.062,0-5.89,1.538-5.89,5.413C26,25.434,27.5,28,31.159,28A12.439,12.439,0,0,0,36.8,26.385l.4,1.222H42V15.339C42,10.015,40.5,8,33.625,8m2.521,14.908a6.834,6.834,0,0,1-2.966.671c-1.138,0-1.584-.435-1.584-1.5s.492-1.375,1.745-1.375h2.8Z" transform="translate(5.003 1.999)" fill="#4fa53a"/>
    <path id="パス_1822" data-name="パス 1822" d="M21.605,21.142c0,2.122-1.408,3.429-4.605,3.429s-4.605-1.306-4.605-3.429V10.851c0-2.121,1.407-3.429,4.605-3.429s4.605,1.314,4.605,3.429v1.424H28V10.327C28,6.2,25.018,2,17,2S6,6.2,6,10.327V21.674C6,25.8,8.987,30,17,30s11-4.2,11-8.327V19.718h-6.4Z" transform="translate(0.999 0.999)" fill="#4fa53a"/>
  </g>
</svg>
