<svg id="PC_Lv1_img_defo" xmlns="http://www.w3.org/2000/svg" xmlns:xlink="http://www.w3.org/1999/xlink" width="100" height="100" viewBox="0 0 100 100">
  <defs>
    <clipPath id="clip-path">
      <rect id="長方形_429" data-name="長方形 429" width="50" height="50" fill="none"/>
    </clipPath>
  </defs>
  <g id="PC_Lv1_bg_thumbnail">
    <g id="楕円形_1" data-name="楕円形 1" fill="#fff" stroke="#aaa" stroke-width="1">
      <circle cx="50" cy="50" r="50" stroke="none"/>
      <circle cx="50" cy="50" r="49.5" fill="none"/>
    </g>
  </g>
  <g id="PC_Lv1_ic_logo" transform="translate(25 26)">
    <g id="Lv1_ic_logo" clip-path="url(#clip-path)">
      <path id="パス_870" data-name="パス 870" d="M49.975,22.115a1.677,1.677,0,0,0-1.1-1.3L32.353,15.044l-2.182-5.87a1.674,1.674,0,0,0-1.085-1.022L2.128.062H2.106a1.657,1.657,0,0,0-.2-.045H1.9A1.7,1.7,0,0,0,1.683,0H1.646a1.551,1.551,0,0,0-.18.01H1.427a1.734,1.734,0,0,0-.2.042L1.2.061c-.042.012-.083.025-.124.04l-.04.018L.975.145A1.34,1.34,0,0,0,.829.22L.792.24A1.738,1.738,0,0,0,.619.362L.6.381a1.71,1.71,0,0,0-.139.13L.441.528.43.543A1.511,1.511,0,0,0,.3.709L.284.729A1.675,1.675,0,0,0,.191.887L.165.938a1.711,1.711,0,0,0-.077.182v.008a2.033,2.033,0,0,0-.053.2l-.009.048A1.6,1.6,0,0,0,0,1.557v.028A1.892,1.892,0,0,0,0,1.8v.036a1.447,1.447,0,0,0,.026.175l.011.052a1.8,1.8,0,0,0,.06.206L11.949,34.156l5.48,14.752A1.669,1.669,0,0,0,18.988,50a1.628,1.628,0,0,0,.586-.109,1.689,1.689,0,0,0,.975-2.167l-4.9-13.184,10-3.863,2.7,7.279a1.646,1.646,0,0,0,.1.212c.011.021.023.042.036.062.029.047.058.092.09.137.016.02.03.04.047.061a1.419,1.419,0,0,0,.117.129.465.465,0,0,0,.038.039,1.623,1.623,0,0,0,.174.144l.04.026a1.692,1.692,0,0,0,.154.092l.067.033c.048.021.1.042.147.06l.072.025c.013,0,.026.01.039.013.037.01.073.015.11.022l.087.018a1.9,1.9,0,0,0,.2.017h.041a1.73,1.73,0,0,0,.268-.022.361.361,0,0,0,.077-.019c.061-.012.121-.028.181-.046.031-.011.06-.025.09-.037.053-.021.1-.044.155-.07.031-.016.06-.035.09-.053q.07-.043.138-.093c.014-.011.03-.019.044-.03L49.375,23.718a1.69,1.69,0,0,0,.6-1.6M33.7,32.129l2.312-6.055v-.017a1.768,1.768,0,0,0,.078-.285l.007-.036a1.546,1.546,0,0,0,.021-.288v-.037a1.646,1.646,0,0,0-.033-.28l-.008-.042a1.781,1.781,0,0,0-.056-.189l-.007-.025-2.135-5.744L44.942,23Zm-9.217-4.61-10,3.863L4.792,5.309,4.4,4.247l22.952,6.888.92,2.475.761,2.047.76,2.047,1.753,4.717.77,2.073-.093.036-2.259.873-2.372.915-1.555.6Z" fill="#efefef"/>
    </g>
  </g>
</svg>
