<svg id="PC_Lv1_ic_home" xmlns="http://www.w3.org/2000/svg" xmlns:xlink="http://www.w3.org/1999/xlink" width="30" height="30" viewBox="0 0 30 30">
  <defs>
    <clipPath id="clip-path">
      <rect id="長方形_5840" data-name="長方形 5840" width="30" height="30" transform="translate(0 -1)" fill="none"/>
    </clipPath>
  </defs>
  <g id="グループ_929" data-name="グループ 929" transform="translate(0 1)" clip-path="url(#clip-path)">
    <path id="パス_1900" data-name="パス 1900" d="M63.438,15.154l-3.812-4.064-.069-5.313c-.031-.885-.4-1.515-1.234-1.482-.794.031-1.075.643-1.1,1.482L57.2,8.546l-3.725-3.94a3.258,3.258,0,0,0-4.928.081L38.528,14.9a1.273,1.273,0,0,0-.216,1.869c.018.019.036.038.055.056a1.319,1.319,0,0,0,1.978-.1L50.267,6.444a1.232,1.232,0,0,1,1.478,0L61.773,16.99c.6.607,1.25.74,1.854.141a1.3,1.3,0,0,0-.12-1.9c-.017-.019-.036-.039-.054-.057l-.011-.012Z" transform="translate(-35.989 -2.518)" fill="#4fa53a"/>
    <path id="パス_1901" data-name="パス 1901" d="M52.334,9.231a.767.767,0,0,0-1.084-.016l-.016.016L42.01,18.643a.806.806,0,0,0-.228.564v6.87A2.889,2.889,0,0,0,44.637,29H49.2V21.776h5.156V29h4.566a2.889,2.889,0,0,0,2.858-2.918v-6.87a.8.8,0,0,0-.228-.564Z" transform="translate(-36.782 -1.998)" fill="#4fa53a"/>
  </g>
</svg>
